<svg fill="none" height="30" viewBox="0 0 48 48" width="30" xmlns="http://www.w3.org/2000/svg">
    <path d="m0 0h48v48h-48z" fill="#fff" fill-opacity=".01" />
    <g stroke="#F07D00" stroke-linecap="round" stroke-linejoin="round" stroke-width="4">
        <path clip-rule="evenodd" d="m24 44c11.0457 0 20-8.9543 20-20s-8.9543-20-20-20-20 8.9543-20 20 8.9543 20 20 20z" fill-rule="evenodd" />
        <path d="m4 24h40" />
        <path clip-rule="evenodd" d="m24 44c4.4183 0 8-8.9543 8-20s-3.5817-20-8-20-8 8.9543-8 20 3.5817 20 8 20z" fill-rule="evenodd" />
        <path d="m9.85791 10.1421c3.61929 3.6193 8.61929 5.8579 14.14209 5.8579 5.5229 0 10.5229-2.2386 14.1422-5.8579" />
        <path d="m38.1422 37.8579c-3.6193-3.6193-8.6193-5.8579-14.1422-5.8579-5.5228 0-10.5228 2.2386-14.14209 5.8579" />
    </g>
</svg>