<svg width="17" height="16" viewBox="0 0 17 16" fill="none" xmlns="http://www.w3.org/2000/svg">
<path d="M16.02 7.28C15.14 4.96 12.82 3.76 10.26 4.24C7.78 1.76 4.34 0.08 0.9 0C0.66 0 0.5 0.16 0.5 0.4C0.58 3.84 2.26 7.28 4.66 9.76C4.26 12.24 5.38 14.64 7.7 15.52C7.3 14.48 7.22 13.28 7.54 12.08C7.94 12.32 8.34 12.56 8.74 12.72C8.9 12.8 9.06 12.8 9.22 12.64L13.22 8.64C13.3 8.56 13.3 8.4 13.22 8.24C13.06 7.84 12.82 7.44 12.58 7.12C13.78 6.8 14.98 6.88 16.02 7.28ZM7.22 6.72C6.58 7.36 5.62 7.36 4.98 6.72C4.34 6.08 4.34 5.12 4.98 4.48C5.62 3.84 6.58 3.84 7.22 4.48C7.86 5.12 7.86 6.08 7.22 6.72Z" fill="white"/>
<path d="M16.26 11.52L14.58 9.84C14.26 9.52 13.78 9.52 13.46 9.84C13.14 10.16 13.14 10.64 13.46 10.96L15.14 12.64C15.46 12.96 15.94 12.96 16.26 12.64C16.58 12.32 16.58 11.84 16.26 11.52Z" fill="white"/>
<path d="M13.14 14.64L11.46 12.96C11.14 12.64 10.66 12.64 10.34 12.96C10.02 13.28 10.02 13.76 10.34 14.08L12.02 15.76C12.34 16.08 12.82 16.08 13.14 15.76C13.46 15.44 13.46 14.96 13.14 14.64Z" fill="white"/>
<path d="M15.3 13.76L12.98 11.44C12.66 11.12 12.18 11.12 11.86 11.44C11.54 11.76 11.54 12.24 11.86 12.56L14.18 14.88C14.5 15.2 14.98 15.2 15.3 14.88C15.62 14.56 15.62 14.08 15.3 13.76Z" fill="white"/>
</svg>
