<svg width="30" height="30" viewBox="0 0 21 21" fill="none" xmlns="http://www.w3.org/2000/svg">
<path fill-rule="evenodd" clip-rule="evenodd" d="M19.9933 14.2409C19.9455 15.2936 19.7781 16.0123 19.5337 16.6415C19.02 17.9699 17.9699 19.02 16.6415 19.5337C16.0126 19.7781 15.2936 19.9452 14.2411 19.9933C13.1866 20.0414 12.8497 20.053 10.164 20.053C7.47799 20.053 7.14136 20.0414 6.08652 19.9933C5.03405 19.9452 4.31506 19.7781 3.68621 19.5337C3.02608 19.2854 2.4285 18.8962 1.93445 18.3929C1.43148 17.8992 1.04228 17.3013 0.793948 16.6415C0.549554 16.0126 0.382158 15.2936 0.33433 14.2411C0.285714 13.1863 0.274414 12.8494 0.274414 10.1637C0.274414 7.47799 0.285714 7.1411 0.334067 6.08652C0.381895 5.03379 0.549029 4.31506 0.793423 3.68594C1.04176 3.02608 1.43121 2.42824 1.93445 1.93445C2.42824 1.43121 3.02608 1.04202 3.68594 0.793686C4.31506 0.549292 5.03379 0.382158 6.08652 0.334067C7.1411 0.285977 7.47799 0.274414 10.1637 0.274414C12.8494 0.274414 13.1863 0.285977 14.2409 0.33433C15.2936 0.382158 16.0123 0.549292 16.6415 0.793423C17.3013 1.04176 17.8992 1.43121 18.3932 1.93445C18.8962 2.4285 19.2856 3.02608 19.5337 3.68594C19.7784 4.31506 19.9455 5.03379 19.9936 6.08652C20.0417 7.1411 20.053 7.47799 20.053 10.1637C20.053 12.8494 20.0417 13.1863 19.9933 14.2409ZM17.1331 3.19427C17.4616 3.51329 17.7144 3.90196 17.8729 4.33135C18.0085 4.67981 18.1696 5.20355 18.2135 6.16773C18.261 7.21047 18.271 7.52319 18.271 10.164C18.271 12.8045 18.261 13.1172 18.2135 14.1602C18.1693 15.1244 18.0082 15.6478 17.8729 15.9963C17.5402 16.8588 16.8585 17.5405 15.996 17.8731C15.6476 18.0087 15.1238 18.1698 14.1597 18.2137C13.1172 18.2613 12.8045 18.2713 10.1634 18.2713C7.52267 18.2713 7.21021 18.2613 6.16746 18.2137C5.20329 18.1698 4.67955 18.0087 4.33109 17.8731C3.90143 17.7147 3.51303 17.4619 3.194 17.1334C2.86552 16.8144 2.61298 16.426 2.45425 15.9963C2.31891 15.6478 2.15782 15.1244 2.11394 14.1602C2.06637 13.1172 2.05613 12.8045 2.05613 10.164C2.05613 7.52319 2.06637 7.21047 2.11394 6.16773C2.15782 5.20355 2.31891 4.67981 2.45425 4.33135C2.61298 3.90169 2.86578 3.51329 3.19427 3.19427C3.51303 2.86578 3.90169 2.61298 4.33135 2.45451C4.67955 2.31918 5.20329 2.15809 6.16746 2.11394C7.21021 2.06637 7.52293 2.05639 10.1637 2.05639C12.8042 2.05639 13.1169 2.06664 14.1599 2.1142C15.1241 2.15809 15.6476 2.31918 15.996 2.45451C16.4257 2.61298 16.8141 2.86578 17.1331 3.19427Z" fill="#F07D00"/>
<path fill-rule="evenodd" clip-rule="evenodd" d="M10.1637 15.2418C7.35895 15.2418 5.0853 12.9684 5.0853 10.1637C5.0853 7.35895 7.35895 5.08556 10.1637 5.08556C12.9682 5.08556 15.2418 7.35895 15.2418 10.1637C15.2418 12.9684 12.9682 15.2418 10.1637 15.2418ZM10.1637 13.4601C11.9843 13.4601 13.4601 11.9843 13.4601 10.1637C13.4601 8.3431 11.9843 6.86727 10.1637 6.86727C8.3431 6.86727 6.86727 8.3431 6.86727 10.1637C6.86727 11.9843 8.3431 13.4601 10.1637 13.4601Z" fill="#F07D00"/>
<path d="M15.4426 6.07155C14.7872 6.07155 14.2559 5.54019 14.2559 4.88479C14.2559 4.22939 14.7872 3.69803 15.4426 3.69803C16.098 3.69803 16.6294 4.22939 16.6294 4.88479C16.6291 5.54019 16.098 6.07155 15.4426 6.07155Z" fill="#F07D00"/>
</svg>
