<svg width="174" height="56" viewBox="0 0 174 56" fill="none" xmlns="http://www.w3.org/2000/svg">
<path d="M3.85259 0.776367C5.06351 0.776367 5.97169 1.15467 6.57715 1.83563C7.1826 2.51658 7.40965 3.34885 7.40965 4.40811C7.40965 5.46737 7.10692 6.29964 6.50147 7.05625C5.89601 7.81287 4.98782 8.19117 3.77691 8.19117C2.64168 8.19117 1.7335 7.81287 1.20372 7.05625C0.673949 6.29964 0.371216 5.39171 0.371216 4.40811C0.371216 3.34885 0.673949 2.51658 1.20372 1.83563C1.80918 1.15467 2.71736 0.776367 3.85259 0.776367ZM6.95556 13.9414V55.2525H0.976674V13.9414H6.95556Z" fill="white"/>
<path d="M33.974 0.170898V55.2523H29.8872L28.9033 52.6798C27.8438 53.6634 26.7086 54.42 25.422 54.9497C24.1354 55.4793 22.7731 55.7819 21.4108 55.7819C20.2756 55.7819 19.2161 55.555 18.1565 55.1767C17.097 54.7983 16.1888 54.1174 15.432 53.2851C14.6751 52.4528 14.0697 51.3936 13.5399 50.183C13.0858 48.9724 12.8588 47.4592 12.8588 45.7946V23.3989C12.8588 21.7344 13.0858 20.2968 13.5399 19.0106C13.994 17.7243 14.5995 16.6651 15.432 15.8328C16.1888 15.0005 17.097 14.3952 18.1565 13.9412C19.2161 13.5629 20.2756 13.336 21.4108 13.336C22.5461 13.336 23.757 13.5629 24.8922 13.9412C26.0274 14.3196 27.087 14.9248 28.0708 15.6815V1.68412L33.974 0.170898ZM18.8376 44.5084C18.8376 46.2486 19.1404 47.5349 19.8215 48.4428C20.5026 49.3507 21.5622 49.8047 23.0002 49.8047C24.8165 49.8047 26.4815 49.0481 27.9195 47.4592V21.7344C26.4058 20.1455 24.8165 19.3889 23.0002 19.3889C21.4865 19.3889 20.427 19.8428 19.8215 20.7508C19.1404 21.6587 18.8376 23.0206 18.8376 24.6852V44.5084Z" fill="white"/>
<path d="M53.4243 36.7153C52.5161 37.5476 51.3808 38.3798 50.0943 39.2878C48.8077 40.1957 47.3697 41.1793 45.7047 42.2386V45.5677C45.7047 47.0052 46.0831 48.0645 46.9156 48.8211C47.7481 49.5777 48.732 49.956 50.0186 49.956C51.3052 49.956 52.3647 49.5777 53.1972 48.8211C54.0297 48.0645 54.4081 47.0052 54.4081 45.5677V42.9195L59.8572 41.482V45.719C59.8572 47.3079 59.6302 48.6698 59.1004 49.8804C58.5706 51.0909 57.8895 52.1502 56.9056 53.0581C55.9974 53.9661 54.9379 54.5714 53.727 55.0253C52.5161 55.4793 51.2295 55.7063 49.7915 55.7063C48.3536 55.7063 47.067 55.4793 45.9318 55.0253C44.7208 54.5714 43.6613 53.8904 42.7531 53.0581C41.8449 52.1502 41.1638 51.1666 40.634 49.8804C40.1042 48.6698 39.8772 47.2322 39.8772 45.719V23.3989C39.8772 21.8857 40.1042 20.4481 40.634 19.2375C41.1638 18.027 41.8449 16.9677 42.7531 16.0598C43.6613 15.1518 44.7208 14.5465 45.9318 14.0926C47.1427 13.6386 48.4293 13.4116 49.8672 13.4116C51.0781 13.4116 52.289 13.5629 53.4999 13.9412C54.7109 14.3196 55.7704 14.9248 56.7543 15.7571C57.6625 16.5894 58.495 17.7243 59.1004 19.0862C59.7059 20.4481 60.0086 22.1883 60.0086 24.2312C60.0086 26.8037 59.4788 29.0735 58.4193 30.965C57.3597 32.9322 55.6947 34.8238 53.4243 36.7153ZM45.7047 36.4126C47.7481 35.1264 49.2618 33.9158 50.397 32.9322C51.7593 31.646 52.8188 30.3597 53.3486 29.0735C53.954 27.7873 54.2568 26.3497 54.2568 24.6852C54.2568 22.491 53.8027 21.0534 52.9702 20.2211C52.062 19.3889 51.0781 18.9349 49.8672 18.9349C48.5806 18.9349 47.5211 19.3889 46.8399 20.2211C46.0831 21.0534 45.7804 22.1883 45.7804 23.7016V36.4126H45.7047Z" fill="white"/>
<path d="M68.485 0.776367C69.696 0.776367 70.6041 1.15467 71.2096 1.83563C71.8151 2.51658 72.1178 3.42451 72.1178 4.40811C72.1178 5.46737 71.8151 6.29964 71.2096 7.05625C70.6041 7.81287 69.696 8.19117 68.485 8.19117C67.3498 8.19117 66.4416 7.81287 65.9119 7.05625C65.3821 6.29964 65.0793 5.39171 65.0793 4.40811C65.0793 3.34885 65.3821 2.51658 65.9119 1.83563C66.4416 1.15467 67.2741 0.776367 68.485 0.776367ZM71.588 13.9414V55.2525H65.6091V13.9414H71.588Z" fill="white"/>
<path d="M78.2479 18.027C79.2318 16.5894 80.594 15.4545 82.3347 14.6222C84.0754 13.7899 85.8918 13.4116 87.8595 13.4116C91.1138 13.4116 93.6113 14.4709 95.2006 16.5894C96.79 18.7079 97.6225 21.3561 97.6225 24.6851V55.2523H93.8384L92.7788 52.9825C91.7193 53.8147 90.584 54.4957 89.2975 55.0253C88.0109 55.5549 86.6486 55.7819 85.2106 55.7819C84.0754 55.7819 83.0159 55.555 81.9563 55.1766C80.8968 54.7983 79.9886 54.193 79.1561 53.3608C78.3236 52.5285 77.7181 51.4692 77.264 50.1073C76.8099 48.7454 76.5829 47.0809 76.5829 45.1137C76.5829 43.6005 76.7343 42.1629 77.037 40.9523C77.3397 39.6661 77.8695 38.5312 78.5506 37.3962C79.2318 36.2613 80.1399 35.2021 81.1995 34.0671C82.259 33.0079 83.5456 31.873 85.0593 30.7381C86.0431 29.9814 87.1027 29.2248 88.3136 28.4682C89.4488 27.7116 90.7354 26.8793 92.022 26.0471V24.7608C92.022 23.0206 91.6436 21.6587 90.8111 20.5994C89.9786 19.5402 88.7677 19.0106 87.1027 19.0106C85.9675 19.0106 84.9079 19.3132 83.924 19.8428C83.0159 20.3725 82.1834 21.2047 81.6536 22.1883L78.2479 18.027ZM86.9513 50.1073C87.8595 50.1073 88.7677 49.8804 89.6002 49.502C90.4327 49.1237 91.1895 48.5184 91.9463 47.7618V31.873C91.1138 32.4026 90.4327 32.8566 89.7516 33.2349C89.1461 33.6888 88.5406 34.0671 87.9352 34.5211C85.8161 36.1857 84.3781 37.7746 83.6213 39.2878C82.8645 40.801 82.4861 42.4655 82.4861 44.1301C82.4861 46.2486 82.8645 47.7618 83.697 48.6698C84.5295 49.5777 85.6647 50.1073 86.9513 50.1073Z" fill="white"/>
<path d="M110.564 12.4282C113.062 12.4282 115.105 13.1848 116.619 14.6224C118.132 16.06 118.889 18.4811 118.889 21.7346C118.889 23.2478 118.738 24.534 118.359 25.5933C118.057 26.6525 117.527 27.7118 116.921 28.8467C116.467 29.6033 115.938 30.5113 115.256 31.4192C114.575 32.4028 113.97 33.3107 113.213 34.37C112.532 35.3536 111.851 36.3372 111.17 37.3208C110.488 38.3044 109.883 39.2123 109.353 40.0446C108.975 40.7255 108.672 41.2552 108.369 41.7848C108.142 42.3144 107.915 42.8441 107.764 43.298C107.613 43.8277 107.537 44.3573 107.461 44.8869C107.385 45.4922 107.386 46.1732 107.386 46.9298V50.4102H118.813V55.2525H102.466V46.9298C102.466 45.5679 102.618 44.206 102.92 42.8441C103.223 41.4822 103.753 40.1202 104.585 38.607C105.039 37.8504 105.645 36.9425 106.326 35.9589C107.007 34.9753 107.688 33.9917 108.445 33.0081C109.126 32.0245 109.883 31.0409 110.564 30.0573C111.245 29.0737 111.851 28.1658 112.305 27.4092C112.91 26.3499 113.364 25.3663 113.591 24.3827C113.818 23.4748 113.97 22.4912 113.97 21.5076C113.97 19.9187 113.667 18.7838 113.062 18.1028C112.456 17.4219 111.548 17.1192 110.413 17.1192C109.202 17.1192 108.294 17.4219 107.688 18.0272C107.007 18.6324 106.704 19.5404 106.704 20.751V22.0372H102.163V20.6753C102.163 18.1028 102.92 16.06 104.358 14.5467C105.796 13.1848 107.915 12.4282 110.564 12.4282Z" fill="#FA9401"/>
<path d="M139.626 47.535C139.626 48.8969 139.399 50.0319 138.945 51.0911C138.491 52.1504 137.885 52.9826 137.128 53.7393C136.372 54.4959 135.388 55.0255 134.328 55.4038C133.269 55.7821 132.133 55.9334 130.998 55.9334C129.787 55.9334 128.652 55.7821 127.593 55.4038C126.533 55.0255 125.625 54.4959 124.868 53.7393C124.111 52.9826 123.506 52.1504 123.052 51.0911C122.598 50.0319 122.37 48.8969 122.37 47.535V20.8266C122.37 19.4647 122.598 18.3298 123.052 17.2705C123.506 16.2113 124.111 15.379 124.868 14.6224C125.625 13.9414 126.533 13.3361 127.593 12.9578C128.652 12.5795 129.787 12.3525 130.998 12.3525C132.209 12.3525 133.269 12.5795 134.328 12.9578C135.388 13.3361 136.296 13.9414 137.128 14.6224C137.885 15.3033 138.566 16.2113 138.945 17.2705C139.399 18.3298 139.626 19.4647 139.626 20.8266V47.535ZM127.214 47.4594C127.214 48.67 127.593 49.5779 128.274 50.2588C128.955 50.8641 129.863 51.1668 130.998 51.1668C132.133 51.1668 133.042 50.8641 133.723 50.2588C134.404 49.6535 134.782 48.7456 134.782 47.4594V20.9023C134.782 19.6917 134.404 18.7837 133.723 18.1028C133.042 17.4975 132.133 17.1949 130.998 17.1949C129.863 17.1949 128.955 17.4975 128.274 18.1028C127.593 18.7081 127.214 19.616 127.214 20.9023V47.4594Z" fill="#FA9401"/>
<path d="M161.347 47.535C161.347 48.8969 161.12 50.0319 160.666 51.0911C160.212 52.1504 159.606 52.9826 158.849 53.7393C158.092 54.4959 157.109 55.0255 156.049 55.4038C154.99 55.7821 153.854 55.9334 152.719 55.9334C151.508 55.9334 150.373 55.7821 149.313 55.4038C148.254 55.0255 147.346 54.4959 146.589 53.7393C145.832 52.9826 145.227 52.1504 144.772 51.0911C144.318 50.0319 144.091 48.8969 144.091 47.535V20.8266C144.091 19.4647 144.318 18.3298 144.772 17.2705C145.227 16.2113 145.832 15.379 146.589 14.6224C147.346 13.9414 148.254 13.3361 149.313 12.9578C150.373 12.5795 151.508 12.3525 152.719 12.3525C153.93 12.3525 154.99 12.5795 156.049 12.9578C157.109 13.3361 158.017 13.9414 158.849 14.6224C159.606 15.3033 160.287 16.2113 160.666 17.2705C161.12 18.3298 161.347 19.4647 161.347 20.8266V47.535ZM148.935 47.4594C148.935 48.67 149.313 49.5779 149.995 50.2588C150.676 50.8641 151.584 51.1668 152.719 51.1668C153.854 51.1668 154.762 50.8641 155.444 50.2588C156.125 49.6535 156.503 48.7456 156.503 47.4594V20.9023C156.503 19.6917 156.125 18.7837 155.444 18.1028C154.762 17.4975 153.854 17.1949 152.719 17.1949C151.584 17.1949 150.676 17.4975 149.995 18.1028C149.313 18.7081 148.935 19.616 148.935 20.9023V47.4594Z" fill="#FA9401"/>
<path d="M166.417 16.665C167.326 16.665 167.931 16.3623 168.309 15.7571C168.688 15.1518 168.839 14.2438 168.839 13.1846H173.759V55.2522H168.839V20.8264H164.298V16.665H166.417Z" fill="#FA9401"/>
</svg>
